<?xml version="1.0" encoding="UTF-8"?> <svg xmlns="http://www.w3.org/2000/svg" viewBox="0 0 792 385.12" width="792px" height="385px"><polygon points="278.6 0 0 278.6 0 326.14 326.14 0 278.6 0" style="fill:#f3fafb"></polygon><polygon points="373.69 0 0 373.69 0 385.12 36.11 385.12 421.23 0 373.69 0" style="fill:#f3fafb"></polygon><polygon points="326.14 0 0 326.14 0 373.69 373.69 0 326.14 0" style="fill:#e2f3f7"></polygon><polygon points="516.32 0 131.2 385.12 178.74 385.12 563.86 0 516.32 0" style="fill:#e2f3f7"></polygon><polygon points="468.77 0 83.65 385.12 131.2 385.12 516.32 0 468.77 0" style="fill:#f3fafb"></polygon><polygon points="421.23 0 36.11 385.12 83.65 385.12 468.77 0 421.23 0" style="fill:#e2f3f7"></polygon><polygon points="40.88 0 0 40.88 0 88.42 88.42 0 40.88 0" style="fill:#e2f3f7"></polygon><polygon points="231.05 0 0 231.05 0 278.6 278.6 0 231.05 0" style="fill:#e2f3f7"></polygon><polygon points="88.42 0 0 88.42 0 135.97 135.97 0 88.42 0" style="fill:#f3fafb"></polygon><polygon points="135.97 0 0 135.97 0 183.51 183.51 0 135.97 0" style="fill:#e2f3f7"></polygon><polygon points="183.51 0 0 183.51 0 231.05 231.05 0 183.51 0" style="fill:#f3fafb"></polygon><polygon points="0 0 0 40.88 40.88 0 0 0" style="fill:#f3fafb"></polygon><polygon points="792 104.67 511.55 385.12 559.1 385.12 792 152.22 792 104.67" style="fill:#e2f3f7"></polygon><polygon points="792 57.13 464.01 385.12 511.55 385.12 792 104.67 792 57.13" style="fill:#f3fafb"></polygon><polygon points="792 152.22 559.1 385.12 606.64 385.12 792 199.76 792 152.22" style="fill:#f3fafb"></polygon><polygon points="563.86 0 178.74 385.12 226.28 385.12 611.41 0 563.86 0" style="fill:#f3fafb"></polygon><polygon points="792 247.31 654.18 385.12 792 385.12 792 247.31" style="fill:#f3fafb"></polygon><polygon points="792 199.76 606.64 385.12 654.18 385.12 792 247.31 792 199.76" style="fill:#e2f3f7"></polygon><polygon points="658.95 0 273.83 385.12 321.37 385.12 706.5 0 658.95 0" style="fill:#f3fafb"></polygon><polygon points="611.41 0 226.28 385.12 273.83 385.12 658.95 0 611.41 0" style="fill:#e2f3f7"></polygon><polygon points="792 0 754.04 0 368.92 385.12 416.46 385.12 792 9.58 792 0" style="fill:#f3fafb"></polygon><polygon points="706.5 0 321.37 385.12 368.92 385.12 754.04 0 706.5 0" style="fill:#e2f3f7"></polygon><polygon points="792 9.58 416.46 385.12 464.01 385.12 792 57.13 792 9.58" style="fill:#e2f3f7"></polygon></svg> 