<?xml version="1.0" encoding="UTF-8"?>
<svg width="542px" height="610px" viewBox="0 0 542 610" version="1.1" xmlns="http://www.w3.org/2000/svg" xmlns:xlink="http://www.w3.org/1999/xlink">
    <!-- Generator: Sketch 52.6 (67491) - http://www.bohemiancoding.com/sketch -->
    <title>Hero_IMG</title>
    <desc>Created with Sketch.</desc>
    <defs>
        <linearGradient x1="0.0127429074%" y1="49.9943525%" x2="99.9999657%" y2="49.9943525%" id="linearGradient-1">
            <stop stop-color="#D2D2ED" offset="0%"></stop>
            <stop stop-color="#D1D5ED" offset="48%"></stop>
            <stop stop-color="#D1D5ED" offset="50%"></stop>
            <stop stop-color="#D9DAF0" offset="69%"></stop>
            <stop stop-color="#DCDCF1" offset="100%"></stop>
        </linearGradient>
        <linearGradient x1="103.177205%" y1="62.225666%" x2="5.97970336%" y2="39.2335666%" id="linearGradient-2">
            <stop stop-color="#D2D2ED" offset="0%"></stop>
            <stop stop-color="#D1D5ED" offset="48%"></stop>
            <stop stop-color="#D1D5ED" offset="50%"></stop>
            <stop stop-color="#D9DAF0" offset="69%"></stop>
            <stop stop-color="#DCDCF1" offset="100%"></stop>
        </linearGradient>
    </defs>
    <g id="Homepage" stroke="none" stroke-width="1" fill="none" fill-rule="evenodd">
        <g id="Homepage_01" transform="translate(-724.000000, -107.000000)">
            <g id="Hero_IMG" transform="translate(724.000000, 107.000000)">
                <path d="M530.718837,546.716357 L453.294767,591.36555 C438.778411,599.764175 415.155194,599.764175 400.544302,591.36555 L11.1236047,366.996271 C3.77089147,362.796959 0.0735271318,357.159381 0.0945348837,351.574296 L0,363.710309 C0,369.284897 3.66585271,374.880481 11.0290698,379.132285 L400.439264,603.501564 C415.050155,611.900189 438.673372,611.900189 453.189729,603.501564 L530.613798,558.852371 C537.819457,554.653058 541.432791,549.183454 541.453798,543.692852 L541.548333,531.556838 C541.537829,537.04744 537.924496,542.527543 530.718837,546.716357 Z" id="Path" fill="#909BD5"></path>
                <path d="M530.729341,546.548385 L453.294767,591.208076 C438.778411,599.606701 415.155194,599.606701 400.544302,591.208076 L379.189922,578.872595 L11.1341085,367.00677 C-3.47678295,358.608144 -3.57131783,344.876392 10.9135271,336.425275 L82.7075194,295.051546 L88.327093,291.807577 C102.84345,283.408952 126.508682,283.408952 141.119574,291.807577 L530.529767,516.008883 C545.151163,524.439003 545.245698,538.118265 530.729341,546.548385 Z" id="Path" fill="#E6EBED"></path>
                <path d="M374.211085,492.681701 L302.364574,534.412371 L11.1341085,367.00677 C-3.47678295,358.608144 -3.57131783,344.876392 10.9135271,336.425275 L82.7075194,295.051546 L374.043023,462.478144 C388.475349,470.834777 388.548876,484.346065 374.211085,492.681701 Z" id="Path" fill="#F5F5F7" style="mix-blend-mode: multiply;"></path>
                <path d="M422.077248,172.599588 L126.046512,2.06549828 C121.960504,-0.29661512 118.26314,-0.506580756 115.542636,1.0156701 L107.002984,5.97085911 C109.670969,4.4171134 113.368333,4.63757732 117.50686,7.02068729 L413.537597,177.554777 C421.657093,182.23701 428.243023,193.606649 428.190504,202.908127 L427.33969,509.216495 C427.33969,513.846237 425.690581,517.111203 423.054109,518.664948 L431.59376,513.709759 C434.230233,512.17701 435.868837,508.922543 435.879341,504.261306 L436.719651,198.00543 C436.751163,188.640962 430.196744,177.281821 422.077248,172.599588 Z" id="Path" fill="url(#linearGradient-1)"></path>
                <path d="M413.359031,177.47079 C421.478527,182.153024 428.064457,193.522663 428.011938,202.824141 L427.171628,509.080017 C427.171628,518.402491 420.554186,522.160876 412.466202,517.478643 L116.593023,347.039038 C108.473527,342.356804 101.887597,331.008162 101.940116,321.685687 L102.780426,15.429811 C102.780426,6.11783505 109.397868,2.34895189 117.485853,7.03118557 L413.359031,177.47079 Z" id="Path" fill="#F5F2FF"></path>
                <polygon id="Path" fill="#B3CFDF" points="402.876163 472.231048 114.481744 304.206048 114.481744 29.8229553 406.510504 198.603832"></polygon>
                <path d="M79.5983721,303.681134 C79.2113209,303.229243 78.7537578,302.842826 78.2433721,302.536821 C77.5978767,302.070714 76.7518059,301.986552 76.0270543,302.316357 L74.188876,303.366186 C74.9136276,303.036381 75.7596985,303.120542 76.4051938,303.586649 C76.9051595,303.89857 77.3519699,304.288434 77.7286822,304.74146 C79.2727519,306.494674 79.9029845,309.003763 79.1572093,310.347543 L72.6027907,321.958643 C72.4666622,322.214686 72.2633074,322.428821 72.0145736,322.578041 L73.8527519,321.528213 C74.1014856,321.378992 74.3048405,321.164858 74.440969,320.908814 L80.9953876,309.297715 C81.7726744,307.932938 81.1424419,305.423849 79.5983721,303.681134 Z" id="Path" fill="#D11E4D"></path>
                <path d="M76.4051938,303.597148 C76.9043791,303.90589 77.3511447,304.292172 77.7286822,304.74146 C79.2727519,306.494674 79.9029845,309.003763 79.1572093,310.347543 L72.6027907,321.958643 C72.067093,322.924485 70.9536822,323.008471 69.7982558,322.357577 C69.2879773,322.051423 68.8304369,321.665025 68.4432558,321.213265 C66.899186,319.460052 66.2689535,316.950962 67.0147287,315.607182 L73.5691473,303.996082 C74.1468605,303.040739 75.2497674,302.935756 76.4051938,303.597148 Z" id="Path" fill="#EA234F"></path>
                <path d="M94.7554651,329.832354 L90.3333333,312.373711 C89.9224161,310.74085 88.9094383,309.323436 87.4972868,308.405361 C87.1955759,308.224702 86.8652041,308.096884 86.5204264,308.027423 L86.3208527,308.027423 C85.9280678,307.941688 85.5174981,308.001376 85.1654264,308.195395 L83.3272481,309.245223 C83.6793198,309.051204 84.0898895,308.991516 84.4826744,309.077251 L84.6822481,309.077251 C85.0270258,309.146713 85.3573976,309.27453 85.6591085,309.455189 C87.07126,310.373264 88.0842378,311.790678 88.495155,313.42354 L92.9382946,330.882182 C93.3164341,332.393935 93.0013178,333.580241 92.224031,334.031667 L94.0622093,332.981838 C94.8184884,332.530412 95.1336047,331.344107 94.7554651,329.832354 Z" id="Path" fill="#D11E4D"></path>
                <path d="M85.6486047,309.476186 C87.0607561,310.394261 88.073734,311.811674 88.4846512,313.444536 L92.9277907,330.903179 C93.4634884,333.002835 92.6231783,334.504089 91.0581008,334.220636 L90.869031,334.220636 C90.5242533,334.151174 90.1938814,334.023356 89.8921705,333.842698 C88.4789693,332.923511 87.4629671,331.507112 87.0456202,329.874347 L82.6129845,312.415704 C82.0667829,310.316048 82.9175969,308.814794 84.4826744,309.098247 L84.6822481,309.098247 C85.0233903,309.168846 85.350121,309.296629 85.6486047,309.476186 Z" id="Path" fill="#EA234F"></path>
                <path d="M75.5333721,353.432491 L109.818023,333.485756 L102.664884,360.140893 C102.156571,362.02956 100.921961,363.640868 99.2301163,364.62366 L67.5924419,382.964158 L75.5333721,353.432491 Z" id="Path" fill="#661ADA"></path>
                <polygon id="Path" fill="#3D0BC0" points="18.2270508 320.782835 53.2441473 300.878093 109.818023 333.517251 75.6230469 354.206055 18.9594961 320.782835"></polygon>
                <polygon id="Path" fill="#5613D7" points="23.6127132 320.782835 53.2441473 303.576151 105.154302 333.527749 75.5228682 350.734433"></polygon>
                <path d="M76.3408203,353.76416 L68.1875,383.076172 L30.5662791,361.600155 C28.1132179,360.18438 26.387607,357.782814 25.829031,355.007234 L18.9069767,320.782835 L76.3408203,353.76416 Z" id="Path" fill="#701EEE"></path>
                <polygon id="Path" fill="#3D0BC0" points="53.2441473 303.576151 53.6327907 338.105 23.6127132 320.782835"></polygon>
                <path d="M76.0165504,305.549828 C75.6809577,305.304507 75.2386757,305.260302 74.861124,305.434347 L39.0744186,326.220945 C39.4519703,326.0469 39.8942523,326.091105 40.229845,326.336426 C41.1818093,326.956585 41.7792444,327.99471 41.836938,329.128969 C41.8844047,329.539142 41.7028971,329.942277 41.3642636,330.178797 L77.150969,309.392199 C77.4896026,309.155679 77.6711101,308.752544 77.6236434,308.342371 C77.5659498,307.208112 76.9685148,306.169987 76.0165504,305.549828 Z" id="Path" fill="#D11E4D"></path>
                <path d="M85.280969,311.145412 C84.9453763,310.900091 84.5030943,310.855886 84.1255426,311.029931 L48.3178295,331.795533 C48.6953811,331.621488 49.1376631,331.665692 49.4732558,331.911014 C50.4252202,332.531173 51.0226552,333.569298 51.0803488,334.703557 C51.1278155,335.113729 50.946308,335.516865 50.6076744,335.753385 L86.4153876,314.998282 C86.7540212,314.761762 86.9355287,314.358626 86.888062,313.948454 C86.8336699,312.810423 86.2358424,311.767711 85.280969,311.145412 Z" id="Path" fill="#D11E4D"></path>
                <path d="M44.1162791,324.919158 C43.7292279,324.467267 43.2716648,324.08085 42.7612791,323.774845 C42.1157837,323.308738 41.2697128,323.224576 40.5449612,323.554381 L38.7067829,324.60421 C39.4315346,324.274405 40.2776054,324.358566 40.9231008,324.824674 C41.4334865,325.130678 41.8910496,325.517095 42.2781008,325.968986 C43.8221705,327.722199 44.4524031,330.231289 43.7066279,331.575069 L37.1522093,343.186168 C37.0160808,343.442212 36.812726,343.656346 36.5639922,343.805567 L38.4021705,342.755739 C38.6509042,342.606518 38.8542591,342.392383 38.9903876,342.13634 L45.5448062,330.525241 C46.2905814,329.18146 45.6603488,326.672371 44.1162791,324.919158 Z" id="Path" fill="#D11E4D"></path>
                <path d="M40.9651163,324.84567 C41.475502,325.151674 41.9330651,325.538092 42.3201163,325.989983 C43.864186,327.743196 44.4944186,330.252285 43.7486434,331.596065 L37.1942248,343.207165 C36.6585271,344.173007 35.5451163,344.256993 34.3896899,343.6061 C33.8793042,343.300095 33.4217411,342.913678 33.0346899,342.461787 C31.4906202,340.708574 30.8603876,338.199485 31.6061628,336.855704 L38.1605814,325.244605 C38.6647674,324.278763 39.7781783,324.17378 40.9651163,324.84567 Z" id="Path" fill="#EA234F"></path>
                <path d="M59.2733721,351.080876 L54.8302326,333.622234 C54.4193154,331.989372 53.4063375,330.571958 51.994186,329.653883 C51.6924752,329.473225 51.3621033,329.345407 51.0173256,329.275945 L50.8177519,329.275945 C50.424967,329.190211 50.0143973,329.249898 49.6623256,329.443918 L47.8241473,330.493746 C48.1762191,330.299726 48.5867887,330.240039 48.9795736,330.325773 L49.1791473,330.325773 C49.523925,330.395235 49.8542969,330.523053 50.1560078,330.703711 C51.5681592,331.621787 52.5811371,333.0392 52.9920543,334.672062 L57.4351938,352.130704 C57.8133333,353.642457 57.4982171,354.828763 56.7209302,355.280189 L58.5591085,354.230361 C59.3468992,353.778935 59.6620155,352.582131 59.2733721,351.080876 Z" id="Path" fill="#D11E4D"></path>
                <path d="M50.1665116,330.745704 C51.5786631,331.66378 52.5916409,333.081193 53.0025581,334.714055 L57.4456977,352.172698 C57.9813953,354.272354 57.1410853,355.773608 55.5760078,355.490155 L55.386938,355.490155 C55.0421602,355.420693 54.7117884,355.292875 54.4100775,355.112216 C52.9968762,354.19303 51.9808741,352.776631 51.5635271,351.143866 L47.1308915,333.685223 C46.5846899,331.585567 47.4355039,330.084313 49.0005814,330.367766 L49.200155,330.367766 C49.5412973,330.438365 49.868028,330.566148 50.1665116,330.745704 Z" id="Path" fill="#EA234F"></path>
                <path d="M73.8317442,374.103608 C76.3316667,375.541873 76.3421705,377.88299 73.8317442,379.352749 L49.2736822,393.598918 C46.439447,395.042369 43.0850878,395.042369 40.2508527,393.598918 L7.93042636,374.953969 C5.43050388,373.515704 5.40949612,371.164089 7.93042636,369.704828 L32.52,355.416667 C35.3550549,353.976632 38.7077746,353.976632 41.5428295,355.416667 L73.8317442,374.103608 Z" id="Path" fill="#F5F5F7" style="mix-blend-mode: multiply;"></path>
                <path d="M242.21938,137.57732 L157.001434,88.5188488 C154.133876,86.8601203 151.528915,86.7131443 149.648721,87.8049656 L146.056395,89.904622 C147.936589,88.8547938 150.54155,88.9702749 153.409109,90.6185052 L238.627054,139.676976 C244.330659,142.973436 248.94186,150.952131 248.920853,157.524055 L248.689767,197.533007 C248.689767,200.787474 247.534341,203.0761 245.675155,204.157423 L249.277984,202.057766 C251.137171,201.007938 252.282093,198.687818 252.292597,195.433351 L252.513178,155.424399 C252.534186,148.841976 247.891473,140.852784 242.21938,137.57732 Z" id="Path" fill="#F5F2FF" style="mix-blend-mode: multiply;"></path>
                <path d="M238.732093,139.477509 C244.435698,142.763471 249.046899,150.752663 249.025891,157.324588 L248.794806,197.33354 C248.794806,203.884467 244.131085,206.530034 238.427481,203.233574 L153.199031,154.1961 C147.495426,150.910137 142.884225,142.920945 142.905233,136.349021 L143.136318,96.3400687 C143.136318,89.7891409 147.800039,87.1435739 153.503643,90.4400344 L238.732093,139.477509 Z" id="Path" fill="#067BBF"></path>
                <path d="M198.817364,136.978918 L166.444419,118.291976 C165.45091,117.579438 164.85457,116.438036 164.837326,115.215979 C164.837326,114.029674 165.562093,113.483763 166.444419,113.998179 L198.817364,132.68512 C199.810873,133.397659 200.407213,134.53906 200.424457,135.761117 C200.424457,136.947423 199.69969,137.493333 198.817364,136.978918 Z" id="Path" fill="#FFFFFF"></path>
                <path d="M220.686434,149.597852 L209.027132,142.82646 C208.033623,142.113922 207.437283,140.972521 207.420039,139.750464 C207.420039,138.564158 208.144806,138.018247 209.027132,138.532663 L220.707442,145.27256 C221.700951,145.985098 222.29729,147.1265 222.314535,148.348557 C222.304031,149.566357 221.631783,150.112268 220.686434,149.597852 Z" id="Path" fill="#FFFFFF"></path>
                <path d="M198.817364,164.788866 L166.444419,146.101924 C165.45091,145.389386 164.85457,144.247985 164.837326,143.025928 C164.837326,141.839622 165.562093,141.293711 166.444419,141.808127 L198.817364,160.495069 C199.810873,161.207607 200.407213,162.349009 200.424457,163.571065 C200.424457,164.757371 199.69969,165.303282 198.817364,164.788866 Z" id="Path" fill="#FFFFFF"></path>
                <path d="M220.686434,177.407801 L209.027132,170.667904 C208.033623,169.955366 207.437283,168.813964 207.420039,167.591907 C207.420039,166.405601 208.144806,165.859691 209.027132,166.374107 L220.707442,173.114003 C221.700951,173.826542 222.29729,174.967943 222.314535,176.19 C222.304031,177.376306 221.631783,177.922216 220.686434,177.407801 Z" id="Path" fill="#FFFFFF"></path>
                <path d="M188.313488,140.537835 L220.686434,159.224777 C221.679943,159.937315 222.276283,161.078716 222.293527,162.300773 C222.293527,163.487079 221.56876,164.03299 220.686434,163.518574 L188.313488,144.831632 C187.319979,144.119094 186.72364,142.977692 186.706395,141.755636 C186.706395,140.56933 187.431163,140.023419 188.313488,140.537835 Z" id="Path" fill="#FFFFFF"></path>
                <path d="M166.433915,127.908402 L178.114225,134.648299 C179.107734,135.360837 179.704073,136.502239 179.721318,137.724296 C179.721318,138.910601 178.99655,139.456512 178.114225,138.942096 L166.433915,132.202199 C165.440406,131.489661 164.844066,130.348259 164.826822,129.126203 C164.826822,127.939897 165.551589,127.393986 166.433915,127.908402 Z" id="Path" fill="#FFFFFF"></path>
                <path d="M345.115349,275.545739 L158.608527,168.641735 C155.089729,166.605069 151.89655,166.4161 149.585698,167.75988 L145.17407,170.32146 C147.484922,168.97768 150.678101,169.166649 154.196899,171.203316 L340.693217,278.10732 C347.688798,282.149158 353.350388,291.944055 353.297868,299.985739 L353.014264,400.769244 C353.014264,404.758591 351.585736,407.572131 349.316899,408.894914 L353.728527,406.333333 C356.007868,405.01055 357.415388,402.19701 357.425891,398.207663 L357.709496,297.424158 C357.772519,289.382474 352.11093,279.587577 345.115349,275.545739 Z" id="Path" fill="#F5F2FF" style="mix-blend-mode: multiply;"></path>
                <path d="M340.829767,277.991838 C347.825349,282.033677 353.486938,291.828574 353.434419,299.870258 L353.150814,400.653763 C353.150814,408.695447 347.426202,411.939416 340.43062,407.897577 L153.986822,301.01457 C146.99124,296.972732 141.329651,287.177835 141.382171,279.136151 L141.665775,178.352646 C141.665775,170.310962 147.390388,167.066993 154.385969,171.108832 L340.829767,277.991838 Z" id="Path" fill="#F5F2FF"></path>
                <polygon id="Path" fill="#B3CFDF" points="164.207093 282.695069 163.051667 282.023179 163.051667 204.41988 164.207093 205.09177"></polygon>
                <polygon id="Path" fill="#B3CFDF" points="204.993643 305.455344 203.838217 304.783454 203.838217 227.180155 204.993643 227.852045"></polygon>
                <polygon id="Path" fill="#B3CFDF" points="245.780194 328.226117 244.624767 327.554227 244.624767 249.950928 245.780194 250.622818"></polygon>
                <polygon id="Path" fill="#7F7BFC" points="286.566744 350.986392 285.411318 350.314502 285.411318 272.711203 286.566744 273.383093"></polygon>
                <polygon id="Path" fill="#7F7BFC" points="327.353295 373.746667 326.197868 373.085275 326.197868 295.481976 327.353295 296.143368"></polygon>
                <path d="M320.063605,373.232251 C313.341124,369.358385 310.231977,361.421684 307.458953,354.429828 C305.211124,348.697766 303.089341,343.280653 299.455,341.180997 C295.988721,339.175825 293.782907,339.868711 290.988876,340.72957 C287.564612,341.779399 283.636163,342.997199 277.228798,339.280808 C266.010659,332.813866 262.386822,311.607337 258.889031,291.114691 C255.926938,273.782027 252.859806,255.850962 245.233992,251.441684 C244.228952,250.732798 242.948594,250.538319 241.778217,250.91677 C238.133372,252.32354 235.475891,260.564691 232.902442,268.543385 C229.551705,278.947182 226.074922,289.707921 219.247403,292.353488 C216.348333,293.466306 213.092132,293.004381 209.583837,290.978213 C203.281512,287.324811 199.878256,281.613746 196.622054,276.091649 C193.649457,271.052474 190.844922,266.296753 186.002636,263.493711 C185.005022,262.792 183.751517,262.55829 182.567868,262.853316 C179.910388,263.693179 177.893643,268.102457 175.929419,272.30177 C173.755116,277.025997 171.496783,281.907698 167.809922,283.073007 C165.972058,283.585953 164.00189,283.275644 162.41093,282.222646 L163.62938,280.12299 C164.628639,280.82108 165.882013,281.050935 167.064147,280.752887 C169.721628,279.913024 171.738372,275.503746 173.702597,271.304433 C175.876899,266.580206 178.135233,261.698505 181.822093,260.533196 C183.66004,260.02167 185.62961,260.331884 187.221085,261.383557 C192.620078,264.533041 195.718721,269.782182 198.722829,274.852852 C201.821473,280.101993 205.025155,285.529605 210.802287,288.868058 C213.690853,290.537285 216.169767,290.967715 218.365078,290.085859 C224.142209,287.860223 227.576977,277.204467 230.612597,267.808505 C233.648217,258.412543 236.200659,250.475842 240.927403,248.659639 C242.786186,248.010369 244.841764,248.266694 246.483953,249.352526 C255.11814,254.33921 258.132752,272.018316 261.336434,290.726254 C264.73969,310.67299 268.268992,331.291615 278.489264,337.191649 C284.003798,340.341134 287.060426,339.427784 290.306124,338.430447 C293.268217,337.517096 296.324845,336.561753 300.725969,339.102337 C305.127093,341.642921 307.385426,347.427474 309.790814,353.568969 C312.511318,360.508333 315.326357,367.699656 321.345078,371.143093 L320.063605,373.232251 Z" id="Path" fill="#EA234F"></path>
                <path d="M308.509341,149.513866 L274.697364,130.354502 C272.312984,128.979227 270.138682,128.853247 268.573605,129.7561 L265.58,131.498814 C267.145078,130.585464 269.308876,130.721942 271.70376,132.097216 L305.515736,151.225086 C310.263488,153.965137 314.107907,160.61055 314.086899,166.069656 L313.897829,234.444966 C313.897829,237.153522 312.931473,239.06421 311.387403,239.956564 L314.381008,238.213849 C315.925078,237.321495 316.88093,235.410808 316.891434,232.702251 L317.080504,164.326942 C317.101512,158.89933 313.257093,152.274914 308.509341,149.513866 Z" id="Path" fill="#F5F2FF" style="mix-blend-mode: multiply;"></path>
                <path d="M305.610271,151.225086 C310.358023,153.965137 314.202442,160.61055 314.181434,166.069656 L313.992364,234.444966 C313.992364,239.893574 310.10593,242.098213 305.358178,239.358162 L271.546202,220.198797 C266.79845,217.458746 262.954031,210.813333 262.975039,205.354227 L263.164109,136.978918 C263.164109,131.530309 267.040039,129.32567 271.798295,132.065722 L305.610271,151.225086 Z" id="Path" fill="#FF4A59"></path>
                <path d="M291.524574,159.361254 L273.38438,148.862973 C272.827603,148.464302 272.492552,147.825707 272.481047,147.141254 C272.481047,146.479863 272.880194,146.175412 273.38438,146.458866 L291.524574,156.957148 C292.08135,157.355818 292.416402,157.994413 292.427907,158.678866 C292.417403,159.340258 292.007752,159.623711 291.524574,159.361254 Z" id="Path" fill="#FFFFFF"></path>
                <path d="M303.772093,166.437096 L297.228178,162.657715 C296.671402,162.259045 296.33635,161.620449 296.324845,160.935997 C296.324845,160.274605 296.723992,159.970155 297.228178,160.253608 L303.772093,164.03299 C304.32887,164.43166 304.663921,165.070255 304.675426,165.754708 C304.675426,166.4161 304.276279,166.72055 303.772093,166.437096 Z" id="Path" fill="#FFFFFF"></path>
                <path d="M291.524574,177.575773 L273.38438,167.077491 C272.827603,166.678821 272.492552,166.040226 272.481047,165.355773 C272.481047,164.694381 272.880194,164.389931 273.38438,164.673385 L291.524574,175.171667 C292.08135,175.570337 292.416402,176.208932 292.427907,176.893385 C292.417403,177.554777 292.007752,177.859227 291.524574,177.575773 Z" id="Path" fill="#FFFFFF"></path>
                <path d="M303.772093,184.641117 L297.228178,180.861735 C296.671402,180.463065 296.33635,179.82447 296.324845,179.140017 C296.324845,178.478625 296.723992,178.174175 297.228178,178.457629 L303.772093,182.23701 C304.32887,182.63568 304.663921,183.274276 304.675426,183.958729 C304.675426,184.630619 304.276279,184.935069 303.772093,184.641117 Z" id="Path" fill="#FFFFFF"></path>
                <path d="M285.642403,162.668213 L303.782597,173.166495 C304.339374,173.565165 304.674425,174.20376 304.68593,174.888213 C304.68593,175.549605 304.286783,175.854055 303.782597,175.570601 L285.642403,165.07232 C285.085626,164.67365 284.750575,164.035054 284.73907,163.350601 C284.73907,162.68921 285.138217,162.384759 285.642403,162.668213 Z" id="Path" fill="#FFFFFF"></path>
                <path d="M273.38438,155.602869 L279.928295,159.382251 C280.485071,159.780921 280.820123,160.419516 280.831628,161.103969 C280.831628,161.765361 280.432481,162.069811 279.928295,161.786357 L273.38438,158.006976 C272.827603,157.608306 272.492552,156.969711 272.481047,156.285258 C272.481047,155.623866 272.890698,155.319416 273.38438,155.602869 Z" id="Path" fill="#FFFFFF"></path>
                <path d="M275.285581,195.107904 C275.348605,203.223076 281.073217,213.059966 288.131822,217.154296 C295.190426,221.248625 300.915039,218.004656 300.978062,209.952474 C300.980637,209.907018 300.980637,209.861453 300.978062,209.815997 C300.978062,201.679828 295.221938,191.758952 288.121318,187.654124 L288.121318,193.491168 C292.406899,195.968763 296.36686,202.792646 296.36686,207.71634 C296.369307,207.7618 296.369307,207.807358 296.36686,207.852818 C296.303837,212.682027 292.858566,214.603213 288.604496,212.146615 C284.350426,209.690017 280.421977,202.960619 280.358953,198.068419 L275.285581,195.107904 Z" id="Path" fill="#783DE9"></path>
                <path d="M275.275078,194.971426 C275.2728,195.01689 275.2728,195.06244 275.275078,195.107904 L280.358953,198.047423 C280.356676,198.001959 280.356676,197.956409 280.358953,197.910945 C280.358953,192.987251 283.835736,191.013574 288.121318,193.48067 L288.121318,187.654124 C281.031202,183.559794 275.275078,186.835258 275.275078,194.971426 Z" id="Path" fill="#FFFFFF"></path>
                <path d="M386.238023,313.119089 L472.674419,363.174897 C473.131166,363.382163 473.670745,363.209985 473.922823,362.776534 C474.1749,362.343083 474.057535,361.789259 473.651279,361.495172 L387.172868,311.439364 C386.716121,311.232098 386.176542,311.404276 385.924464,311.837727 C385.672387,312.271178 385.789752,312.825002 386.196008,313.119089 L386.238023,313.119089 Z" id="Path" fill="#EDEDF8"></path>
                <path d="M473.724806,373.473711 L387.214884,323.396907 C386.913244,323.178552 386.513621,323.150628 386.184516,323.32491 C385.855412,323.499192 385.6541,323.84535 385.665465,324.217425 C385.676831,324.5895 385.898895,324.92274 386.238023,325.076632 L472.674419,375.163935 C473.131166,375.371201 473.670745,375.199023 473.922823,374.765572 C474.1749,374.332121 474.057535,373.778297 473.651279,373.48421 L473.724806,373.473711 Z" id="Path" fill="#EDEDF8"></path>
                <path d="M473.724806,385.462749 L387.246395,335.406942 C386.944756,335.188586 386.545132,335.160662 386.216028,335.334945 C385.886924,335.509227 385.685612,335.855385 385.696977,336.22746 C385.708342,336.599534 385.930406,336.932774 386.269535,337.086667 L472.674419,387.152973 C472.976058,387.371328 473.375682,387.399252 473.704786,387.22497 C474.03389,387.050687 474.235202,386.704529 474.223837,386.332454 C474.212472,385.96038 473.990408,385.62714 473.651279,385.473247 L473.724806,385.462749 Z" id="Path" fill="#EDEDF8"></path>
                <path d="M473.724806,397.451787 L387.246395,347.395979 C386.944756,347.177624 386.545132,347.1497 386.216028,347.323982 C385.886924,347.498265 385.685612,347.844423 385.696977,348.216497 C385.708342,348.588572 385.930406,348.921812 386.269535,349.075704 L472.674419,399.131512 C472.976058,399.349868 473.375682,399.377791 473.704786,399.203509 C474.03389,399.029227 474.235202,398.683069 474.223837,398.310994 C474.212472,397.938919 473.990408,397.60568 473.651279,397.451787 L473.724806,397.451787 Z" id="Path" fill="#EDEDF8"></path>
                <path d="M473.724806,409.482818 L387.246395,359.42701 C386.789648,359.219744 386.250069,359.391922 385.997991,359.825373 C385.745914,360.258824 385.863279,360.812649 386.269535,361.106735 L472.674419,411.12055 C473.123082,411.355855 473.677277,411.209242 473.950716,410.782904 C474.224155,410.356567 474.126061,409.792042 473.724806,409.482818 Z" id="Path" fill="#EDEDF8"></path>
                <path d="M473.724806,421.419364 L387.246395,371.363557 C386.944756,371.145201 386.545132,371.117277 386.216028,371.29156 C385.886924,371.465842 385.685612,371.812 385.696977,372.184075 C385.708342,372.55615 385.930406,372.889389 386.269535,373.043282 L472.674419,423.130584 C473.131166,423.337851 473.670745,423.165672 473.922823,422.732221 C474.1749,422.29877 474.057535,421.744946 473.651279,421.450859 L473.724806,421.419364 Z" id="Path" fill="#EDEDF8"></path>
                <path d="M473.724806,433.397904 L387.246395,383.342096 C386.944756,383.123741 386.545132,383.095817 386.216028,383.270099 C385.886924,383.444381 385.685612,383.790539 385.696977,384.162614 C385.708342,384.534689 385.930406,384.867929 386.269535,385.021821 L472.674419,435.088127 C472.976058,435.306483 473.375682,435.334406 473.704786,435.160124 C474.03389,434.985842 474.235202,434.639684 474.223837,434.267609 C474.212472,433.895534 473.990408,433.562295 473.651279,433.408402 L473.724806,433.397904 Z" id="Path" fill="#EDEDF8"></path>
                <path d="M473.724806,445.386942 L387.246395,395.331134 C386.944756,395.112778 386.545132,395.084855 386.216028,395.259137 C385.886924,395.433419 385.685612,395.779577 385.696977,396.151652 C385.708342,396.523727 385.930406,396.856967 386.269535,397.010859 L472.674419,447.077165 C472.976058,447.295521 473.375682,447.323444 473.704786,447.149162 C474.03389,446.97488 474.235202,446.628722 474.223837,446.256647 C474.212472,445.884572 473.990408,445.551332 473.651279,445.39744 L473.724806,445.386942 Z" id="Path" fill="#EDEDF8"></path>
                <path d="M412.802326,303.376684 L315.431395,247.011409 C310.891003,244.357384 305.308354,244.206903 300.631434,246.612474 C300.631434,246.612474 292.343876,252.239553 290.033023,254.360206 C293.992984,253.058419 298.719729,252.470515 302.837248,254.843127 L400.10314,311.134914 C407.456424,315.390565 411.983645,323.239971 411.983023,331.732543 L411.983023,563.80756 C411.983023,567.670928 406.82562,573.161529 406.82562,573.161529 L416.646744,567.912388 C422.602442,564.867887 424.587674,562.306306 424.587674,555.98634 L424.587674,323.764347 C424.582569,315.352938 420.090704,307.582388 412.802326,303.376684 Z" id="Path" fill="url(#linearGradient-2)"></path>
                <path d="M411.983023,331.239124 C411.982111,323.057226 407.618972,315.495812 400.533798,311.397371 L300.29531,253.467852 C297.517047,251.862174 294.092653,251.860277 291.312612,253.462877 C288.53257,255.065477 286.819448,258.028976 286.818837,261.236581 L286.818837,497.300945 C286.816663,504.717622 290.772381,511.572414 297.196667,515.284502 L395.744031,572.206186 C396.740887,572.786729 397.797357,573.258367 398.895194,573.612955 C406.037829,575.96457 412.004031,571.408316 412.035543,563.891546 L412.035543,331.239124 L411.983023,331.239124 Z" id="Path" fill="#433083"></path>
                <polygon id="Path" fill="#FFFFFF" points="405.775233 345.044364 292.35438 279.493093 292.35438 466.908419 405.775233 401.451632"></polygon>
                <path d="M292.35438,466.908419 L292.35438,497.668385 C292.356568,501.904466 294.597146,505.824388 298.247054,507.977698 L398.222946,566.957045 C399.771962,567.868513 401.690806,567.880784 403.251364,566.989201 C404.811923,566.097618 405.775031,564.438822 405.775233,562.642251 L405.775233,401.451632 L292.35438,466.908419 Z" id="Path" fill="#EDEDF8"></path>
                <path d="M405.775233,330.000326 C405.78974,324.686286 402.966967,319.768074 398.37,317.097938 L299.875155,259.882302 C298.325763,258.980716 296.41246,258.975277 294.857962,259.868041 C293.303465,260.760805 292.344719,262.415692 292.343876,264.207595 L292.343876,279.4511 L405.785736,345.002371 L405.775233,330.000326 Z" id="Path" fill="#783DE9"></path>
                <path d="M377.645853,365.883454 C376.805973,365.881597 375.982181,365.653089 375.261473,365.222062 L320.189651,333.674725 C317.813152,332.234556 316.360002,329.66007 316.355736,326.882337 L316.355736,315.260739 C316.32424,313.476037 317.26572,311.815249 318.813643,310.924948 C320.264803,310.067079 322.06822,310.067079 323.51938,310.924948 L378.528178,342.734742 C380.910239,344.170844 382.368171,346.746745 382.372597,349.527131 L382.43562,360.886271 C382.468841,362.676899 381.522517,364.343153 379.967209,365.23256 C379.26388,365.649133 378.463344,365.873598 377.645853,365.883454 Z M321.145504,311.34488 C320.502192,311.346754 319.871115,311.520751 319.317829,311.848797 C318.097803,312.552439 317.357322,313.863679 317.385116,315.271237 L317.385116,326.892835 C317.386605,329.295162 318.640489,331.523102 320.693837,332.771873 L375.797171,364.340206 C376.923293,365.010658 378.326397,365.010658 379.452519,364.340206 C380.674216,363.638219 381.415308,362.325899 381.385233,360.917766 L381.290698,349.558625 C381.290649,347.150455 380.032046,344.917227 377.971473,343.669089 L322.994186,311.848797 C322.434769,311.517115 321.795946,311.342984 321.145504,311.34488 Z" id="Shape" fill="#909BD5" fill-rule="nonzero"></path>
                <path d="M340.325581,372.150928 C339.818717,372.149859 339.321545,372.012031 338.88655,371.751993 L308.362287,354.261856 C306.97354,353.421088 306.125151,351.916298 306.124961,350.293505 L306.124961,343.84756 C306.102245,342.770829 306.670479,341.767887 307.606008,341.233488 C308.483104,340.71191 309.575462,340.71191 310.452558,341.233488 L340.913798,358.860103 C342.306575,359.698287 343.159216,361.203551 343.161628,362.828454 L343.161628,369.127423 C343.182054,370.203575 342.614436,371.205431 341.680581,371.741495 C341.271374,371.991529 340.804846,372.132497 340.325581,372.150928 Z M309.013527,341.926375 C308.703295,341.927944 308.39896,342.01123 308.131202,342.167835 C307.52691,342.513757 307.1602,343.162205 307.175349,343.858058 L307.175349,350.304003 C307.177055,351.552951 307.829893,352.710724 308.897984,353.359003 L339.411744,370.838643 C339.960508,371.171041 340.64864,371.171041 341.197403,370.838643 C341.800024,370.491063 342.166121,369.843697 342.153256,369.148419 L342.153256,362.84945 C342.15522,361.596763 341.50191,360.434173 340.43062,359.783952 L309.96938,342.157337 C309.675825,341.989981 309.340572,341.909854 309.003023,341.926375 L309.013527,341.926375 Z" id="Shape" fill="#909BD5" fill-rule="nonzero"></path>
                <path d="M389.126589,399.225997 C388.619725,399.224928 388.122553,399.087099 387.687558,398.827062 L357.131783,381.347423 C355.743036,380.506655 354.894647,379.001865 354.894457,377.379072 L354.894457,370.933127 C354.877885,369.860707 355.444982,368.863791 356.375504,368.329553 C357.253226,367.810255 358.344332,367.810255 359.222054,368.329553 L389.683295,385.956168 C391.076071,386.794353 391.928712,388.299616 391.931124,389.924519 L391.931124,396.223488 C391.95155,397.299641 391.383932,398.301496 390.450078,398.83756 C390.048149,399.075143 389.593227,399.20866 389.126589,399.225997 Z M357.814535,369.001443 C357.504303,369.003013 357.199968,369.086299 356.932209,369.242904 C356.327917,369.588826 355.961208,370.237273 355.976357,370.933127 L355.976357,377.379072 C355.978062,378.628019 356.630901,379.785792 357.698992,380.434072 L388.212752,397.934708 C388.765421,398.266628 389.456245,398.266628 390.008915,397.934708 C390.611536,397.587128 390.977633,396.939763 390.964767,396.244485 L390.964767,389.945515 C390.966732,388.692829 390.313422,387.530238 389.242132,386.880017 L358.780891,369.253402 C358.486505,369.076757 358.147179,368.989236 357.804031,369.001443 L357.814535,369.001443 Z" id="Shape" fill="#909BD5" fill-rule="nonzero"></path>
                <path d="M417.276977,372.980292 C416.741602,372.671472 416.415895,372.096764 416.426163,371.479038 L416.426163,352.172698 C416.426811,351.236516 416.916721,350.368684 417.71814,349.884072 L418.621473,349.422148 C419.126654,349.122939 419.754896,349.122939 420.260078,349.422148 C420.795452,349.730968 421.121159,350.305676 421.110891,350.923402 L421.110891,370.313729 C421.108641,371.246714 420.618671,372.110672 419.818915,372.591856 L418.894574,372.969794 C418.389392,373.269002 417.76115,373.269002 417.255969,372.969794 L417.276977,372.980292 Z" id="Path" fill="#909BD5"></path>
                <path d="M417.276977,395.583093 C416.741602,395.274272 416.415895,394.699564 416.426163,394.081838 L416.426163,383.205619 C416.426811,382.269437 416.916721,381.401605 417.71814,380.916993 L418.621473,380.455069 C419.126654,380.15586 419.754896,380.15586 420.260078,380.455069 C420.795452,380.763889 421.121159,381.338597 421.110891,381.956323 L421.110891,392.916529 C421.108641,393.849515 420.618671,394.713472 419.818915,395.194656 L418.894574,395.572595 C418.389392,395.871803 417.76115,395.871803 417.255969,395.572595 L417.276977,395.583093 Z" id="Path" fill="#909BD5"></path>
                <path d="M329.086434,334.735052 C328.993955,334.734092 328.903369,334.708741 328.823837,334.661564 L321.471124,330.462251 C321.218775,330.3173 321.131774,329.995333 321.276802,329.743119 C321.421831,329.490904 321.743969,329.403949 321.996318,329.5489 L329.349031,333.748213 C329.563027,333.863463 329.669927,334.110429 329.607448,334.345225 C329.544969,334.58002 329.329441,334.74128 329.086434,334.735052 Z" id="Path" fill="#D1D5ED"></path>
                <path d="M366.238643,379.090292 C365.955039,378.365911 365.240775,377.410567 364.368953,377.410567 C363.497132,377.410567 363.507636,378.743849 363.738721,379.342251 C363.969806,379.940653 364.789109,381.137457 365.671434,381.126959 C366.55376,381.11646 366.480233,379.688694 366.238643,379.090292 Z" id="Path" fill="#D1D5ED"></path>
                <path d="M371.217481,381.966821 C370.933876,381.24244 370.219612,380.287096 369.347791,380.287096 C368.475969,380.287096 368.486473,381.620378 368.717558,382.21878 C368.948643,382.817182 369.767946,384.013986 370.650271,384.003488 C371.532597,383.99299 371.45907,382.565223 371.217481,381.966821 Z" id="Path" fill="#D1D5ED"></path>
                <path d="M376.206822,384.843351 C375.923217,384.118969 375.208953,383.163625 374.337132,383.163625 C373.46531,383.163625 373.475814,384.496907 373.706899,385.095309 C373.937984,385.693711 374.757287,386.890515 375.639612,386.880017 C376.521938,386.869519 376.437907,385.431254 376.206822,384.843351 Z" id="Path" fill="#D1D5ED"></path>
                <path d="M381.185659,387.71988 C380.902054,386.995498 380.187791,386.040155 379.315969,386.040155 C378.444147,386.040155 378.454651,387.373436 378.685736,387.971838 C378.916822,388.570241 379.736124,389.767045 380.61845,389.756546 C381.500775,389.746048 381.416744,388.307784 381.185659,387.71988 Z" id="Path" fill="#D1D5ED"></path>
                <path d="M302.35407,594.599021 C293.466388,598.062976 283.994615,599.784523 274.455775,599.669691 C258.94155,599.669691 244.351667,595.554364 235.423372,588.667491 C231.557946,585.685979 227.12531,580.909261 227.902597,575.135206 C228.711395,569.172182 235.024225,563.219656 244.792829,559.219811 C253.68044,555.755603 263.152262,554.034046 272.691124,554.149141 C288.205349,554.149141 302.795233,558.264467 311.723527,565.15134 C315.588953,568.132852 320.021589,572.90957 319.244302,578.683625 C318.435504,584.646649 312.122674,590.599175 302.35407,594.599021 Z" id="Path" fill="#F5F5F7" style="mix-blend-mode: multiply;"></path>
                <path d="M297.942442,432.799502 C294.260353,426.437088 292.251122,419.245996 292.102287,411.897423 L291.598101,386.292113 L295.074884,408.73744 C295.263953,410.039227 295.516047,411.330515 295.789147,412.632302 C294.948837,422.23823 298.310078,431.214261 297.942442,432.799502 Z" id="Path" fill="#433083"></path>
                <polygon id="Path" fill="#FF4A59" points="379.463023 437.712698 383.895659 515.473471 334.348876 485.857818 329.91624 407.93957"></polygon>
                <polygon id="Path" fill="#FF4A59" points="368.833101 444.242629 363.770233 527.598986 314.233953 497.993832 319.296822 414.469502"></polygon>
                <polygon id="Path" fill="#FF4A59" points="379.463023 437.712698 383.895659 515.473471 372.414922 515.473471 371.511589 440.379261"></polygon>
                <polygon id="Path" fill="#EA234F" points="371.511589 440.379261 372.414922 515.473471 363.770233 527.598986 368.833101 444.242629"></polygon>
                <polygon id="Path" fill="#EA234F" points="329.91624 407.93957 327.58438 413.167715 319.296822 414.469502 330.683023 421.314381"></polygon>
                <path d="M356.186434,443.31878 C355.650736,442.352938 354.736899,441.849021 354.148682,442.195464 C353.560465,442.541907 353.528953,443.612732 354.064651,444.578574 C354.600349,445.544416 355.440659,446.090326 356.102403,445.70189 C356.764147,445.313454 356.722132,444.284622 356.186434,443.31878 Z" id="Path" fill="#DE2A48"></path>
                <path d="M330.872093,427.602852 C330.336395,426.63701 329.422558,426.133093 328.834341,426.479536 C328.246124,426.825979 328.214612,427.896804 328.75031,428.862646 C329.286008,429.828488 330.126318,430.374399 330.788062,429.985962 C331.449806,429.597526 331.439302,428.568694 330.872093,427.602852 Z" id="Path" fill="#DE2A48"></path>
                <path d="M347.426202,462.772096 C348.907602,462.769044 350.360162,462.362544 351.627752,461.596289 C354.266695,460.01132 355.86609,457.145931 355.829302,454.069021 L355.829302,444.557577 C355.86293,444.279909 355.733614,444.0077 355.497074,443.858242 C355.260535,443.708784 354.959039,443.708784 354.722499,443.858242 C354.48596,444.0077 354.356643,444.279909 354.390271,444.557577 L354.390271,454.069021 C354.420456,456.616995 353.097352,458.990123 350.913488,460.305 C348.778973,461.608078 346.094438,461.608078 343.959922,460.305 L337.899186,456.51512 C333.3172,453.730452 330.527757,448.751957 330.546473,443.392268 L330.546473,428.883643 C330.580101,428.605975 330.450785,428.333765 330.214245,428.184307 C329.977705,428.03485 329.67621,428.03485 329.43967,428.184307 C329.20313,428.333765 329.073814,428.605975 329.107442,428.883643 L329.107442,443.392268 C329.095203,449.266488 332.154166,454.720326 337.174419,457.774914 L343.235155,461.564794 C344.497148,462.338808 345.945626,462.756067 347.426202,462.772096 Z" id="Path" fill="#FFFFFF"></path>
                <polygon id="Path" fill="#D4D8EF" points="363.770233 527.515 385.376705 527.515 386.175 524.050567 402.24593 515.106031 383.212907 503.431942 383.895659 515.378986 372.414922 515.378986"></polygon>
                <path d="M445.511395,449.439278 C445.514871,445.000998 443.190955,440.885515 439.387636,438.594553 L372.740543,399.194502 C370.837458,398.062855 368.467348,398.062855 366.564264,399.194502 L366.448721,399.246993 L364.400465,400.454296 L364.63155,400.968711 C363.773672,402.105535 363.312447,403.492161 363.318566,404.916065 L363.623178,459.63311 C363.615632,463.457565 365.607002,467.008277 368.875116,468.997577 L436.352016,509.048522 C438.338652,510.197074 440.792933,510.175449 442.759,508.99207 C444.725068,507.80869 445.892072,505.650659 445.805504,503.358454 L445.511395,449.439278 Z" id="Path" fill="#2D2168"></path>
                <path d="M361.175775,406.154863 C361.085216,403.860799 362.250641,401.699178 364.217465,400.513159 C366.18429,399.32714 368.640973,399.304586 370.629264,400.454296 L380.408372,406.228351 L412.256124,497.227457 L380.082752,478.131082 L361.312326,424.033436 L361.175775,406.154863 Z" id="Path" fill="#783DE9"></path>
                <path d="M380.05124,478.131082 L366.753333,470.236375 C363.485219,468.247074 361.493849,464.696362 361.501395,460.871907 L361.301822,424.033436 L380.05124,478.131082 Z" id="Path" fill="#783DE9"></path>
                <path d="M438.074651,440.337268 C441.345971,442.328507 443.337813,445.884042 443.326589,449.712234 L443.631202,504.597251 C443.717769,506.889456 442.550766,509.047488 440.584698,510.230867 C438.61863,511.414246 436.16435,511.435871 434.177713,510.28732 L412.119574,497.227457 L380.271822,406.228351 L438.074651,440.337268 Z" id="Path" fill="#783DE9"></path>
                <path d="M368.328915,434.300756 L368.328915,437.660206 C368.326886,438.42969 368.724547,439.145098 369.379302,439.549897 L379.452519,445.376443 C379.853995,445.60609 380.348605,445.599594 380.743905,445.359485 C381.139205,445.119375 381.372769,444.68357 381.353721,444.221632 L381.353721,440.830687 C381.35575,440.061203 380.958089,439.345795 380.303333,438.940997 L370.24062,433.145945 C369.838524,432.910687 369.339865,432.914186 368.941113,433.155061 C368.542361,433.395937 368.307442,433.835574 368.328915,434.300756 Z" id="Path" fill="#FFFFFF"></path>
                <path d="M386.700194,445.061495 L386.700194,448.420945 C386.698165,449.190429 387.095826,449.905837 387.750581,450.310636 L397.823798,456.137182 C398.225274,456.366828 398.719884,456.360333 399.115184,456.120224 C399.510484,455.880114 399.744048,455.444308 399.725,454.982371 L399.725,451.591426 C399.727029,450.821942 399.329368,450.106534 398.674612,449.701735 L388.643411,443.917182 C388.241375,443.665823 387.732765,443.659072 387.324191,443.899671 C386.915618,444.140269 386.675043,444.588198 386.700194,445.061495 Z" id="Path" fill="#FFFFFF"></path>
                <path d="M405.071473,455.832732 L405.071473,459.192182 C405.069444,459.961666 405.467105,460.677074 406.12186,461.081873 L416.195078,466.908419 C416.596553,467.138066 417.091163,467.13157 417.486463,466.891461 C417.881763,466.651351 418.115327,466.215545 418.096279,465.753608 L418.096279,462.362663 C418.098308,461.593179 417.700647,460.877771 417.045891,460.472973 L406.972674,454.62543 C406.562817,454.389299 406.055657,454.400224 405.65636,454.653786 C405.257063,454.907348 405.031713,455.361581 405.071473,455.832732 Z" id="Path" fill="#FFFFFF"></path>
                <path d="M423.442752,466.593471 L423.442752,469.952921 C423.440723,470.722405 423.838384,471.437813 424.49314,471.842612 L434.566357,477.669158 C434.967832,477.898804 435.462442,477.892309 435.857742,477.652199 C436.253042,477.41209 436.486606,476.976284 436.467558,476.514347 L436.467558,473.123402 C436.469587,472.353918 436.071926,471.63851 435.417171,471.233711 L425.354457,465.43866 C424.952361,465.203402 424.453703,465.2069 424.05495,465.447776 C423.656198,465.688652 423.42128,466.128288 423.442752,466.593471 Z" id="Path" fill="#FFFFFF"></path>
                <path d="M379.746628,456.200172 C377.236202,451.7489 373.00314,449.449777 370.29314,451.07701 C367.58314,452.704244 367.436085,457.627938 369.957016,462.089708 C372.173333,466.005567 376.353876,469.03957 379.410504,467.212869 C382.11,465.575137 382.257054,460.651443 379.746628,456.200172 Z" id="Path" fill="#FF4A59"></path>
                <path d="M401.699729,472.944931 L401.699729,475.044588 C401.699614,475.525161 401.950497,475.970937 402.361473,476.220395 L411.562868,481.616512 C411.811913,481.76319 412.12133,481.761764 412.369011,481.612796 C412.616692,481.463829 412.76285,481.191249 412.749806,480.902629 L412.749806,478.802973 C412.749921,478.322399 412.499038,477.876623 412.088062,477.627165 L402.886667,472.252045 C402.640904,472.107629 402.336251,472.107191 402.090073,472.2509 C401.843896,472.394608 401.694611,472.660037 401.699729,472.944931 Z" id="Path" fill="#FFAD4C"></path>
                <path d="M414.840078,480.745155 L414.840078,482.844811 C414.839963,483.325384 415.090846,483.771161 415.501822,484.020619 L435.312132,495.568729 C435.561177,495.715406 435.870594,495.71398 436.118275,495.565013 C436.365955,495.416045 436.512114,495.143466 436.49907,494.854845 L436.49907,492.755189 C436.499184,492.274616 436.248302,491.828839 435.837326,491.579381 L416.027016,480.031271 C415.77797,479.884594 415.468553,479.88602 415.220873,480.034987 C414.973192,480.183955 414.827034,480.456534 414.840078,480.745155 Z" id="Path" fill="#FFAD4C"></path>
                <path d="M436.425543,447.518093 L436.49907,460.053041 C436.514042,460.575792 436.245973,461.066033 435.79768,461.335735 C435.349387,461.605438 434.79046,461.612735 434.335271,461.354828 L422.959574,454.62543 C422.226135,454.176141 421.771177,453.38533 421.751628,452.525773 L421.678101,440.043316 C421.663129,439.520566 421.931197,439.030325 422.37949,438.760622 C422.827783,438.49092 423.386711,438.483622 423.841899,438.741529 L435.217597,445.39744 C435.958726,445.84929 436.415094,446.650483 436.425543,447.518093 Z" id="Path" fill="#FFAD4C"></path>
                <path d="M436.457054,452.200326 L436.457054,451.559931 L432.097946,449.008849 L432.097946,446.646735 C432.096062,445.749326 431.626327,444.917781 430.858488,444.452595 L427.497248,442.562904 C427.204029,442.383083 426.834614,442.383083 426.541395,442.562904 C426.238753,442.742425 426.057686,443.072194 426.068721,443.423763 L426.068721,445.439433 L421.709612,442.888351 L421.709612,443.518247 L426.068721,446.06933 L426.068721,450.846048 L421.73062,448.32646 L421.73062,448.956357 L426.089729,451.50744 L426.089729,452.966701 C426.089379,453.862012 426.55487,454.693088 427.318682,455.160842 L430.469845,457.040034 C430.63504,457.138023 430.823958,457.188859 431.016047,457.18701 C431.205557,457.183787 431.390664,457.129373 431.551744,457.029536 C431.89042,456.826643 432.094735,456.458272 432.087442,456.063694 L432.087442,455.013866 L436.44655,457.564948 L436.44655,456.935052 L432.087442,454.383969 L432.087442,449.617749 L436.457054,452.200326 Z M431.604264,456.074192 C431.603628,456.271727 431.50016,456.454688 431.331163,456.557113 C431.162769,456.65685 430.953355,456.65685 430.784961,456.557113 L427.633798,454.677921 C427.037317,454.309177 426.675348,453.657185 426.677946,452.956203 L426.677946,443.455258 C426.671128,443.297009 426.751822,443.147804 426.888023,443.066821 C426.954047,443.025256 427.030576,443.003403 427.108605,443.003832 C427.181608,443.005915 427.253287,443.023825 427.318682,443.056323 L430.669419,444.946014 C431.271357,445.305767 431.638704,445.956265 431.635775,446.657234 L431.604264,456.074192 Z" id="Shape" fill="#433083" fill-rule="nonzero"></path>
                <path d="M262.061202,556.458763 L260.790233,561.319467 C262.219628,560.375398 263.835079,559.748894 265.527481,559.482268 C266.031667,559.482268 266.504341,559.482268 266.977016,559.482268 L267.848837,559.482268 C269.229704,559.508191 270.445055,560.399253 270.884457,561.707904 C270.884457,561.907371 270.989496,562.106838 271.010504,562.285309 C271.010504,562.285309 271.010504,565.592268 266.956008,568.584278 C266.378295,569.014708 265.601008,569.539622 264.781705,570.064536 C262.486186,571.518877 260.339983,573.196244 258.374341,575.072216 C257.312872,576.164819 255.882538,576.823471 254.36186,576.919914 C253.183074,576.965648 252.039352,576.51398 251.210206,575.675291 C250.38106,574.836602 249.94288,573.688163 250.002752,572.510636 C250.002752,572.258677 250.002752,571.807251 250.107791,571.355825 L250.181318,570.757423 C250.181318,570.505464 250.181318,570.358488 250.254845,570.180017 C250.401899,569.130189 250.580465,568.006873 250.759031,566.92555 C251.162316,564.493856 251.41489,562.039581 251.51531,559.576753 C251.578333,558.222474 251.672868,556.595241 251.777907,554.76854" id="Path" fill="#FBB2B8"></path>
                <path d="M268.699651,571.712766 C268.311008,577.276856 268.006395,581.266203 267.796318,582.452509 C267.414961,584.653778 267.746131,586.919243 268.741667,588.91945 C270.737403,591.900962 275.25407,590.851134 278.75186,590.147749 L289.087674,588.111082 C292.265496,587.570622 294.917092,585.38412 296.051744,582.368522 C296.231201,580.807338 295.163241,579.376482 293.614845,579.103557 L285.705426,578.505155 C283.561179,578.465845 281.52962,577.538061 280.096357,575.943574 C279.440007,575.21463 279.181189,574.211264 279.403101,573.256014" id="Path" fill="#FBB2B8"></path>
                <path d="M270.842442,561.707904 C270.842442,561.907371 270.947481,562.106838 270.968488,562.285309 C270.815084,563.893385 270.135827,565.406141 269.035775,566.589605 C269.182829,564.489948 269.308876,562.306306 269.487442,560.007182 C270.126766,560.395372 270.607068,560.998221 270.842442,561.707904 Z" id="Path" fill="#535873"></path>
                <path d="M276.808643,459.213179 L273.84655,508.555103 C273.805254,509.511046 273.714096,510.464185 273.57345,511.410636 C273.348414,513.134706 272.997346,514.839989 272.523062,516.512801 L261.882636,558.295962 C261.01885,559.076322 259.951954,559.596748 258.805,559.797216 L258.132752,559.944192 C255.632829,560.416615 252.618217,560.164656 251.273721,558.337955 C251.273721,558.337955 250.895581,521.446993 258.29031,507.400292 L251.987984,453.859055 L276.808643,459.213179 Z" id="Path" fill="#433083"></path>
                <path d="M271,562.274811 C271,562.274811 271,565.58177 266.945504,568.57378 C266.367791,569.00421 265.590504,569.529124 264.771202,570.054038 C262.475682,571.508379 260.329479,573.185746 258.363837,575.061718 C257.302368,576.154321 255.872034,576.812972 254.351357,576.909416 C251.872442,577.035395 249.687636,576.237526 249.992248,572.500137 C249.992248,572.248179 249.992248,571.796753 250.097287,571.345326 L250.170814,570.746924 C250.170814,570.473969 250.170814,570.316495 250.244341,570.169519 C250.548953,571.418814 251.924961,571.744261 252.996357,571.69177 C254.531827,571.723107 256.025907,571.192991 257.197907,570.201014 C259.172636,568.321821 273.363372,560.227646 264.55062,559.702732 L265.601008,559.534759 C269.802558,559.04134 270.464302,560.437612 270.852946,561.707904 C270.884457,561.896873 270.936977,562.09634 271,562.274811 Z" id="Path" fill="#FF4A59"></path>
                <path d="M270.779419,561.571426 C270.125483,563.692724 268.760447,565.524161 266.913992,566.757577 C266.336279,567.188007 265.558992,567.712921 264.73969,568.237835 C262.439341,569.686598 258.122248,574.106375 255.643333,575.586632 C254.060802,576.346204 252.223589,576.369253 250.622481,575.649622 C251.542553,576.771327 252.99461,577.312552 254.424884,577.06689 C255.926396,576.877666 257.309643,576.154736 258.321822,575.030223 C260.287463,573.154251 262.433667,571.476884 264.729186,570.022543 C265.558992,569.497629 266.336279,568.972715 266.903488,568.542285 C270.957984,565.560773 270.957984,562.243316 270.957984,562.243316 C270.957984,562.064845 270.884457,561.865378 270.831938,561.665911 C270.779419,561.466443 270.789922,561.623918 270.779419,561.571426 Z" id="Path" fill="#FF4A59"></path>
                <path d="M279.980814,572.836082 C279.421189,573.613258 278.574146,574.134819 277.627946,574.284845 C277.417667,574.360172 277.198966,574.409529 276.976705,574.431821 C273.993605,574.977732 269.718527,574.358333 268.132442,572.458144 C268.132442,572.458144 272.060891,522.192371 273.636473,512.617938 L270.905465,467.874261 C270.905465,467.874261 255.454264,463.737938 251.924961,453.848557 C250.370388,449.470773 250.675,443.864691 251.65186,438.67854 C252.616842,433.619467 254.069654,428.665661 255.989961,423.88646 C255.989961,423.88646 281.566899,403.855739 294.854302,429.135601 C296.279967,432.114422 297.20953,435.305876 297.606318,438.584055 C303.320426,476.031426 279.980814,572.836082 279.980814,572.836082 Z" id="Path" fill="#433083"></path>
                <path d="M293.614845,579.103557 L288.509961,578.683625 C290.537209,579.250533 291.219961,581.108729 289.171705,582.525997 C286.829341,584.142732 267.869845,586.809296 267.796318,582.452509 C267.712287,583.313368 267.670271,583.995756 267.649264,584.342199 C267.513661,585.940066 267.880896,587.540356 268.699651,588.91945 C270.663876,592.068935 275.212054,590.851134 278.709845,590.147749 L289.045659,588.111082 C292.22348,587.570622 294.875076,585.38412 296.009729,582.368522 C296.191642,580.820892 295.146293,579.395758 293.614845,579.103557 Z" id="Path" fill="#FF4A59"></path>
                <path d="M290.736783,586.095412 L276.724612,588.877457 C274.287713,589.370876 271.346628,590.053265 269.119806,589.391873 C269.932366,590.287743 271.063362,590.830332 272.270969,590.903625 C274.465787,590.988672 276.660965,590.7445 278.783372,590.179244 L289.119186,588.142577 C291.742944,587.642089 294.032403,586.055576 295.421512,583.775292 C294.096021,584.954053 292.478079,585.755341 290.736783,586.095412 Z" id="Path" fill="#FF4A59"></path>
                <path d="M297.091628,435.959485 C296.88066,433.540359 296.099572,431.205539 294.812287,429.1461 C281.566899,403.834742 255.947946,423.896959 255.947946,423.896959 C254.086104,427.773137 252.801538,431.900657 252.135039,436.148454 C256.599186,446.825206 274.886434,443.07732 291.955233,438.027646 C291.745155,448.924863 290.642248,497.731375 288.331395,511.410636 C286.073062,524.82744 278.877907,564.007027 276.93469,574.463316 C277.156984,574.441233 277.375711,574.39187 277.58593,574.31634 C279.592171,563.50311 286.703295,524.848436 288.961628,511.50512 C291.314496,497.668385 292.417403,448.32646 292.637984,437.828179 C294.164992,437.311626 295.653296,436.687152 297.091628,435.959485 Z" id="Path" fill="#2D2168"></path>
                <path d="M273.57345,511.473625 L271.472674,469.480498 C271.386537,467.754905 270.297661,466.239503 268.689147,465.606632 L259.529767,461.974227 L260.821744,465.501649 C265.25565,477.573933 268.859855,489.934648 271.609225,502.497595 L271.609225,502.728557 C269.350891,511.799072 260.054961,551.356598 258.048721,559.933694 L258.720969,559.786718 C262.838488,542.202096 269.623992,513.478797 271.913837,504.145825 L273.57345,511.473625 Z" id="Path" fill="#2D2168"></path>
                <path d="M288.205349,409.608797 C288.205349,409.608797 247.859961,417.755464 241.988295,408.999897 C239.351822,405.084038 253.931202,362.041082 253.931202,362.041082 L256.914302,359.500498 L267.134574,362.167062 C268.500078,362.513505 270.401279,360.424347 270.401279,360.424347 C268.857209,365.914948 260.748217,392.633076 258.847016,398.90055 C258.542403,399.87689 288.520465,401.241667 288.520465,401.241667 C286.209612,401.924055 286.031047,408.716443 288.205349,409.608797 Z" id="Path" fill="#2D2168"></path>
                <path d="M270.915969,360.749794 C273.044549,363.128049 275.985304,364.625725 279.161512,364.949107 C280.54054,364.941872 281.913231,364.762 283.247519,364.413694 C285.694922,363.752302 289.885969,362.387526 291.997248,361.673643 C291.293488,361.243213 290.579225,360.791787 289.896473,360.371856 L287.365039,358.912595 L278.174147,353.610962 L272.407519,355.616134 C271.393103,355.951937 270.609065,356.765281 270.311063,357.790951 C270.013062,358.81662 270.239286,359.923176 270.915969,360.749794 Z" id="Path" fill="#FBB2B8"></path>
                <path d="M295.684109,410.532646 L295.684109,410.8161 L295.57907,411.697955 L295.474031,411.131048 C295.572957,410.942921 295.643736,410.741307 295.684109,410.532646 Z" id="Path" fill="#433083"></path>
                <path d="M296.356357,343.669089 C293.688372,354.828763 286.167597,355.637131 279.26655,351.994227 C271.567209,347.94189 267.092558,338.577423 266.861473,331.837526 C266.514845,321.570206 273.163798,315.103265 281.724457,314.819811 C301.125116,314.158419 297.25969,339.805722 296.356357,343.669089 Z" id="Path" fill="#FBB2B8"></path>
                <path d="M271.420155,337.464605 L271.420155,359.836443 C271.420155,360.886271 272.386512,361.9361 274.161667,362.534502 C277.218295,363.657818 281.51438,363.384863 283.825233,361.894107 C284.616431,361.481018 285.134227,360.684832 285.190736,359.79445 C285.190736,359.79445 285.190736,337.422612 285.190736,337.422612 L271.420155,337.464605 Z" id="Path" fill="#FBB2B8"></path>
                <path d="M332.62624,401.661598 L336.943333,408.653454 C339.474767,406.900241 341.029341,405.755928 341.029341,405.755928 C343.166737,405.264102 345.244598,404.542518 347.226628,403.60378 C348.804618,402.783991 349.915875,401.282352 350.238165,399.534298 C350.560454,397.786243 350.057718,395.987348 348.875736,394.659244 L348.455581,394.186821 C348.455581,394.186821 351.470194,391.44677 352.184457,390.827371 C352.898721,390.207973 353.318876,389.347113 352.993256,388.727715 C352.363023,387.5939 351.197093,388.118814 350.209729,388.790704 C348.37155,390.050498 342.793992,393.756392 342.793992,393.756392 C342.058177,394.26986 341.412252,394.901253 340.882287,395.625086 L339.831899,397.042354 C338.662035,398.599268 337.089587,399.807921 335.283721,400.538282 C335.283721,400.538282 334.264845,401.000206 332.62624,401.661598 Z" id="Path" fill="#FBB2B8"></path>
                <path d="M339.684845,406.690275 C339.684845,406.690275 309.486202,428.736667 299.518023,421.440361 C298.467636,420.621495 297.112636,417.241048 295.831163,412.737285 C295.825986,412.702482 295.825986,412.667105 295.831163,412.632302 C294.990853,422.23823 298.320581,431.224759 297.931938,432.799502 C297.919429,432.878643 297.88274,432.951981 297.826899,433.009467 C287.154961,440.830687 255.968953,438.846512 252.429147,430.18543 C251.945969,429.009622 254.529922,420.736976 255.359729,417.262045 C256.882791,410.564141 255.548798,403.813746 254.729496,396.989863 L253.321977,385.105808 L251.37876,368.917457 C251.294729,357.516323 259.099109,352.918076 266.935,353.957405 C268.482583,354.142143 269.996175,354.545081 271.430659,355.15421 C272.039884,355.406168 276.682597,352.834089 277.333837,353.128041 L278.111124,353.568969 L285.369302,357.768282 L287.302016,358.8811 L289.83345,360.340361 C290.547713,360.760292 291.261977,361.20122 291.934225,361.642148 L292.385891,361.894107 C295.564969,363.663514 298.47575,365.876367 301.030581,368.466031 C303.279443,370.915462 304.695026,374.013386 305.074574,377.316082 C305.074574,377.316082 308.467326,405.829416 309.097558,409.073385 C309.349651,410.417165 336.155543,400.118351 336.155543,400.118351 C337.962209,400.769244 340.115504,404.874072 339.684845,406.690275 Z" id="Path" fill="#433083"></path>
                <path d="M283.751705,370.922629 C279.64469,380.024639 270.611357,384.307938 263.594767,380.465567 C263.448711,380.35555 263.294172,380.257259 263.132597,380.171615 C260.53814,383.604553 256.158023,385.525739 252.628721,385.147801 L251.37876,368.917457 C251.294729,357.516323 259.099109,352.918076 266.935,353.957405 C268.482583,354.142143 269.996175,354.545081 271.430659,355.15421 C272.039884,355.406168 276.682597,352.834089 277.333837,353.128041 L278.111124,353.568969 L285.369302,357.768282 C286.201736,362.214824 285.636678,366.809892 283.751705,370.922629 Z" id="Path" fill="#433083"></path>
                <path d="M296.629457,318.294742 C291.566589,311.418368 272.081899,307.114072 258.66845,317.486375 C258.038698,318.071053 257.360525,318.601362 256.641202,319.071615 C252.923129,321.167339 249.99941,324.428943 248.322132,328.352096 C246.728139,331.87304 246.076629,335.747457 246.431434,339.595756 C246.572967,341.288941 246.006354,342.965071 244.866357,344.225498 C243.884552,345.36525 243.074235,346.641969 242.460969,348.015378 C239.782481,353.9889 240.874884,360.728797 244.761318,364.109244 C245.22755,364.515755 245.73852,364.86796 246.28438,365.159072 C246.919843,365.507353 247.597717,365.772006 248.301124,365.946443 C247.618372,370.565687 248.952364,375.048454 251.89345,377.599536 C252.359682,378.006047 252.870652,378.358252 253.416512,378.649364 C257.681085,380.990481 262.933023,379.174278 266.315271,374.670515 C266.472829,374.765 266.619884,374.880481 266.777442,374.964467 C273.804535,378.806838 282.81686,374.534038 286.923876,365.421529 C289.581357,359.500498 289.539341,352.981065 287.207481,348.088866 C286.841116,347.311519 286.408881,346.566925 285.915504,345.86323 C288.309507,343.449176 290.217262,340.597976 291.535078,337.464605 C292.069778,336.15342 293.012618,335.049118 294.22407,334.31512 C294.462158,334.175143 294.696744,334.024668 294.927829,333.863694 C299.633566,330.619725 300.48438,323.543883 296.629457,318.294742 Z" id="Path" fill="#FF4A59"></path>
                <path d="M296.629457,318.452216 C292.648488,313.035103 279.949302,309.003763 268.090426,312.709656 C267.986233,312.783076 267.860667,312.819987 267.733295,312.814639 C278.027093,311.34488 287.690659,315.260739 291.104419,319.921976 C294.959341,325.171117 294.119031,332.246959 289.402791,335.564416 C289.171705,335.725389 288.937119,335.875865 288.699031,336.015842 C287.487579,336.74984 286.544739,337.854142 286.010039,339.165326 C284.692224,342.298698 282.784468,345.149898 280.390465,347.563952 C280.883799,348.267675 281.316032,349.012265 281.682442,349.789588 C284.014302,354.681787 284.056318,361.20122 281.398837,367.122251 C280.269324,369.669508 278.640691,371.9648 276.60907,373.872646 C275.44994,374.946172 274.145113,375.850937 272.73314,376.560206 C276.289177,376.351018 279.648359,374.858843 282.186628,372.360893 C284.218249,370.453048 285.846882,368.157756 286.976395,365.610498 C289.633876,359.689467 289.59186,353.170034 287.26,348.277835 C286.893727,347.50044 286.461487,346.755839 285.968023,346.052199 C288.362026,343.638145 290.269782,340.786945 291.587597,337.653574 C292.122297,336.342389 293.065137,335.238087 294.276589,334.504089 C294.514677,334.364112 294.749264,334.213637 294.980349,334.052663 C299.633566,330.745704 300.48438,323.701357 296.629457,318.452216 Z" id="Path" fill="#EA234F"></path>
                <ellipse id="Oval" fill="#FBB2B8" transform="translate(288.100043, 343.212544) rotate(-36.910000) translate(-288.100043, -343.212544) " cx="288.100043" cy="343.212544" rx="3.48661723" ry="5.3761534"></ellipse>
                <path d="M300.253295,270.265103 L300.253295,273.351598 C300.253562,274.059976 300.623957,274.716779 301.230155,275.083814 L310.463062,280.42744 C310.829824,280.636844 311.28122,280.631616 311.643029,280.413775 C312.004839,280.195934 312.220473,279.79955 312.206705,279.377612 L312.206705,276.228127 C312.210124,275.516012 311.839253,274.85438 311.229845,274.485412 L301.996938,269.173282 C301.623502,268.958981 301.162289,268.96785 300.797376,269.196348 C300.432464,269.424846 300.223273,269.835766 300.253295,270.265103 Z" id="Path" fill="#FFFFFF"></path>
                <path d="M317.101512,280.143986 L317.101512,283.230481 C317.101779,283.938859 317.472175,284.595663 318.078372,284.962698 L322.637054,287.57677 C323.003816,287.786174 323.455212,287.780946 323.817022,287.563105 C324.178831,287.345264 324.394465,286.94888 324.380698,286.526942 L324.380698,283.377457 C324.384116,282.665342 324.013245,282.00371 323.403837,281.634742 L318.845155,279.062663 C318.473398,278.849673 318.014705,278.85766 317.650596,279.083462 C317.286488,279.309265 317.075647,279.716491 317.101512,280.143986 Z" id="Path" fill="#FFFFFF"></path>
                <path d="M379.242442,316.04811 C378.717248,314.725326 377.414767,312.972113 375.818178,312.972113 C374.053527,312.972113 374.242597,315.407715 374.662752,316.520533 C375.166938,317.853814 376.584961,319.816993 378.202558,319.806495 C380.072248,319.816993 379.683605,317.171426 379.242442,316.04811 Z" id="Path" fill="#FFFFFF"></path>
                <path d="M388.380814,321.360241 C387.85562,320.037457 386.55314,318.284244 384.95655,318.284244 C383.191899,318.284244 383.380969,320.719845 383.801124,321.832663 C384.30531,323.165945 385.723333,325.129124 387.34093,325.118625 C389.21062,325.087131 388.811473,322.452062 388.380814,321.360241 Z" id="Path" fill="#FFFFFF"></path>
                <path d="M397.508682,326.630378 C396.983488,325.307595 395.681008,323.554381 394.084419,323.554381 C392.319767,323.554381 392.508837,325.989983 392.928992,327.102801 C393.433178,328.446581 394.851202,330.399261 396.468798,330.388763 C398.338488,330.367766 397.949845,327.722199 397.508682,326.630378 Z" id="Path" fill="#FFFFFF"></path>
                <path d="M112.65407,517.027216 C128.220814,526.223711 153.535155,526.181718 169.196434,516.922234 C184.857713,507.662749 184.952248,492.702698 169.375,483.506203 C153.797752,474.309708 128.493915,474.351701 112.832636,483.611186 C97.1713566,492.87067 97.0873256,507.830722 112.65407,517.027216 Z" id="Path" fill="#F5F5F7" style="mix-blend-mode: multiply;"></path>
                <path d="M124.744031,491.064966 C125.300736,493.784021 128.220814,503.232474 128.000233,508.229656 C127.779651,513.226838 126.403643,518.465481 122.821822,519.189863 C118.546744,520.050722 114.922907,515.441976 113.872519,511.988041 C112.822132,508.534107 112.969186,496.860017 113.578411,494.140962 C114.187636,491.421907 124.744031,491.064966 124.744031,491.064966 Z" id="Path" fill="#171F41"></path>
                <path d="M152.022597,466.299519 C152.232674,468.8611 152.663333,471.989588 153.30407,473.018419 C153.944806,474.047251 144.050155,478.26756 144.050155,478.26756 L141.413682,471.559158 L142.905233,464.924244 L152.022597,466.299519 Z" id="Path" fill="#DEE7EF"></path>
                <path d="M123.620116,484.786993 C124.653249,487.193571 124.984609,489.843039 124.575969,492.429742 C124.040271,495.232784 128.525426,501.720722 126.886822,510.497285 C125.909961,515.746426 123.735659,516.890739 121.634884,516.890739 C119.534109,516.890739 115.227519,514.434141 114.093101,508.250653 C113.126744,502.949021 113.221279,492.839175 113.767481,487.894485 C115.164496,475.233557 123.662132,484.293574 123.620116,484.786993 Z" id="Path" fill="#171F41"></path>
                <path d="M123.11593,485.206924 C123.11593,485.206924 124.029767,487.957474 123.399535,489.332749 C122.92686,490.382577 122.349147,490.729021 120.027791,490.267096 C117.927016,489.868162 116.876628,490.645034 115.752713,490.928488 C114.628798,491.211942 114.124612,488.020464 114.397713,486.51921 C114.670814,485.017955 123.11593,485.206924 123.11593,485.206924 Z" id="Path" fill="#DEE7EF"></path>
                <path d="M154.669574,324.761684 C154.669574,324.761684 159.721938,377.421065 154.123372,415.288368 C152.915426,440.431753 153.682209,461.659278 152.92593,466.068557 C152.169651,470.477835 142.012403,469.90043 141.371667,467.223368 C140.447326,462.478144 136.592403,439.087973 139.270891,416.201718 C138.571983,405.194424 137.189814,394.241132 135.132364,383.405086 C135.132364,383.405086 133.63031,397.651254 131.76062,415.004914 C128.998101,440.704708 125.752403,477.133746 125.080155,482.193918 C124.344884,488.996804 113.841008,488.692354 112.801124,484.44055 C112.338953,482.529863 110.185659,449.964192 114.072093,417.47201 C111.29907,378.145447 107.538682,349.033711 114.00907,327.65921 C135.815116,337.706065 154.669574,324.761684 154.669574,324.761684 Z" id="Path" fill="#433083"></path>
                <path d="M154.669574,324.761684 C154.669574,324.761684 155.037209,327.753694 155.037209,329.076478 C150.489031,336.614244 123.294496,342.314811 112.769612,332.372938 L113.725465,328.667045 L154.669574,324.761684 Z" id="Path" fill="#2D2168"></path>
                <path d="M112.97969,328.131632 C114.240155,340.824055 155.467868,334.871529 154.65907,324.761684 C152.799884,301.528986 161.087442,266.464725 150.930194,253.058419 C146.403023,247.074399 121.424806,254.874622 121.424806,254.874622 C121.424806,254.874622 109.933566,262.580361 108.746628,266.811168 C104.618605,281.498265 110.574302,303.880601 112.97969,328.131632 Z" id="Path" fill="#E6EBED"></path>
                <path d="M136.981047,251.788127 C136.981047,251.788127 146.34,249.635979 153.419612,252.19756 C163.639884,255.892955 168.692248,277.561409 175.047093,285.571598 C181.401938,293.581787 203.407558,305.465842 203.407558,305.465842 L198.659806,315.911632 C198.659806,315.911632 172.841279,302.263866 165.814186,294.327165 C161.89624,289.928385 152.075116,276.039158 152.075116,276.039158 L146.403023,270.359588 L136.981047,251.788127 Z" id="Path" fill="#E6EBED"></path>
                <path d="M136.277287,262.118436 C144.543837,271.745361 145.457674,309.497182 145.667752,319.858986 C144.933024,323.604524 143.473698,327.17066 141.371667,330.357268 C141.371667,330.357268 134.98531,325.853505 133.724845,322.368076 C133.11562,316.803986 138.07345,278.747715 134.565155,261.66701 C134.449612,261.215584 136.277287,262.118436 136.277287,262.118436 Z" id="Path" fill="#B3CFDF"></path>
                <path d="M137.989419,256.606838 C137.789845,260.176254 137.04407,262.223419 136.193256,262.737835 C135.142868,263.357234 133.682829,263.210258 131.519031,261.688007 C129.355233,260.165756 130.258566,254.601667 130.258566,254.601667 C130.258566,254.601667 138.241512,252.103076 137.989419,256.606838 Z" id="Path" fill="#EA234F"></path>
                <path d="M137.36969,242.72811 C137.36969,242.72811 138.58814,250.937766 137.537752,252.890447 C136.487364,254.843127 129.386744,258.863969 124.250349,252.19756 C124.029767,242.434158 123.347016,233.56311 123.347016,233.56311 L137.36969,242.72811 Z" id="Path" fill="#FFC2BE"></path>
                <path d="M126.361628,238.003883 C126.361628,238.003883 128.34686,245.237199 137.915891,249.373522 C137.642791,245.258196 137.359186,242.948574 137.359186,242.948574 L126.361628,238.003883 Z" id="Path" fill="#FFAEAB"></path>
                <path d="M121.43531,254.864124 C115.132984,257.908625 103.190078,263.798162 98.0746899,269.456735 C88.5476744,279.955017 81.6571318,298.851924 82.318876,309.749141 C82.9806202,320.488883 106.551318,343.816065 106.551318,343.816065 L114.492248,336.792715 C114.492248,336.792715 97.0348062,318.725172 95.8268605,310.053591 C94.2512791,298.75744 113.893527,280.143986 113.893527,280.143986 L126.85531,273.194124 L121.43531,254.864124 Z" id="Path" fill="#E6EBED"></path>
                <path d="M135.5,254.685653 C136.077713,254.685653 137.674302,259.031942 138.451589,260.984622 C138.545482,261.236694 138.764719,261.421119 139.029251,261.470558 C139.293782,261.519997 139.564883,261.427212 139.743566,261.226082 C140.033395,260.885029 140.277074,260.50735 140.468333,260.102766 C141.435329,258.173898 141.376233,255.890096 140.310775,254.013763 C139.743566,253.016426 139.092326,251.441684 137.957907,250.780292 C138.010426,252.753969 135.5,254.685653 135.5,254.685653 Z" id="Path" fill="#B3CFDF"></path>
                <path d="M132.13876,255.829966 C131.585474,258.370519 130.841085,260.865702 129.911938,263.294244 C129.859455,263.430191 129.751747,263.537513 129.615569,263.589554 C129.47939,263.641595 129.327518,263.63347 129.197674,263.567199 C125.237713,261.331065 122.643256,257.110756 121.771434,255.504519 C121.550853,255.105584 121.340775,254.591168 121.634884,254.234227 C122.355941,253.209677 123.235211,252.30607 124.239845,251.557165 C125.080155,253.751306 128.809031,255.903454 132.13876,255.829966 Z" id="Path" fill="#B3CFDF"></path>
                <path d="M135.111357,383.415584 C135.111357,383.415584 140.667907,365.956942 144.102674,353.453488 C142.001899,355.70012 139.176357,357.400842 136.571395,357.400842 C136.182752,362.586993 135.111357,383.415584 135.111357,383.415584 Z" id="Path" fill="#2D2168"></path>
                <path d="M136.20376,261.457045 C144.890465,270.685034 147.484922,308.352869 148.157171,318.725172 C147.585497,322.491131 146.286952,326.110146 144.33376,329.380928 C144.33376,329.380928 137.747829,325.181615 136.34031,321.759175 C135.478992,316.226581 138.745698,277.98134 134.47062,261.079107 C134.355078,260.69067 136.20376,261.457045 136.20376,261.457045 Z" id="Path" fill="#EA234F"></path>
                <polygon id="Path" fill="#B3CFDF" points="155.909031 281.603247 155.026705 273.21512 164.784806 293.193351"></polygon>
                <path d="M172.421124,489.595206 C172.631202,491.232938 172.557674,493.007148 170.624961,493.962491 C168.408643,495.01232 164.196589,495.117302 159.333295,491.862835 C154.47,488.608368 152.92593,484.31457 150.089884,483.46421 C147.253837,482.613849 143.44093,482.603351 142.075426,480.808144 C139.869612,477.889622 141.791822,476.692818 141.791822,476.692818 L172.421124,489.595206 Z" id="Path" fill="#171F41"></path>
                <path d="M149.270581,474.393694 C151.371357,471.24421 153.377597,469.47 156.01407,472.294038 C158.650543,475.118076 159.932016,476.955275 162.621008,478.918454 C164.585233,480.356718 172.148023,486.267251 172.431628,489.605704 C172.715233,492.944158 169.690116,493.679038 164.207093,492.513729 C158.72407,491.348419 154.007829,484.199089 152.169651,482.897302 C150.068876,481.438041 143.409419,480.913127 141.844341,479.233402 C140.279264,477.553677 141.413682,471.559158 141.413682,471.559158 C141.413682,471.559158 148.104651,476.146907 149.270581,474.393694 Z" id="Path" fill="#171F41"></path>
                <path d="M150.699109,214.435241 C150.699109,214.435241 152.043605,223.075326 150.152907,228.460945 C150.278953,234.381976 148.052132,243.379003 143.798062,246.738454 C139.081822,250.454845 127.149419,241.111375 127.149419,241.111375 C127.149419,241.111375 118.599264,225.227474 122.08655,219.642388 C125.573837,214.057302 149.533178,205.060275 150.699109,214.435241 Z" id="Path" fill="#FFC2BE"></path>
                <path d="M151.476395,221.437595 C154.154884,217.962663 153.072984,210.624364 145.667752,205.690172 C139.281395,201.427869 126.918333,200.504021 122.758798,209.55354 C113.641434,211.065292 117.50686,222.518918 123.609612,235.977715 C122.13907,228.408454 123.903721,225.017509 127.212442,227.579089 C129.145155,229.059347 129.42876,232.492285 130.678721,232.52378 C132.590426,232.58677 130.678721,224.272131 135.31093,221.962509 C142.075426,218.59256 149.522674,223.96768 151.476395,221.437595 Z" id="Path" fill="#171F41"></path>
                <path d="M119.744186,230.466117 C119.744186,233.143179 121.918488,236.240172 124.208333,236.240172 C126.844051,236.11145 128.961359,234.022399 129.124147,231.389966 C129.135827,230.089081 128.619591,228.838986 127.693281,227.925038 C126.76697,227.011091 125.509652,226.511302 124.208333,226.539759 C121.939496,226.539759 119.744186,227.789055 119.744186,230.466117 Z" id="Path" fill="#FFC2BE"></path>
                <polygon id="Path" fill="#B3CFDF" points="107.69624 287.030859 110.479767 282.317131 112.927171 327.575223"></polygon>
                <path d="M198.271163,309.381701 C196.979186,312.300223 197.147248,315.229244 198.649302,315.922131 C200.151357,316.615017 202.40969,314.809313 203.701667,311.89079 C204.993643,308.972268 204.825581,306.043247 203.323527,305.350361 C201.821473,304.657474 199.573643,306.463179 198.271163,309.381701 Z" id="Path" fill="#B3CFDF"></path>
                <path d="M109.156279,338.514433 C106.887442,340.383127 105.721512,342.713746 106.561822,343.816065 C107.402132,344.918385 109.912558,344.225498 112.181395,342.367302 C114.450233,340.509107 115.616163,338.16799 114.775853,337.06567 C113.935543,335.963351 111.425116,336.645739 109.156279,338.514433 Z" id="Path" fill="#B3CFDF"></path>
                <path d="M110.479767,352.991564 C121.267248,352.991564 127.475039,339.595756 127.475039,335.343952 L127.023372,335.343952 C127.023372,339.490773 120.97314,352.529639 110.469264,352.529639 L110.479767,352.991564 Z" id="Path" fill="#2D2168"></path>
                <path d="M197.472868,312.079759 C199.573643,313.518024 199.773217,315.512698 200.624031,317.570361 C202.157597,321.360241 202.787829,320.803832 203.943256,323.86933 C204.322983,324.995617 204.871966,326.057599 205.571357,327.018814 C206.201589,327.753694 207.441047,327.144794 207.441047,325.675034 C207.441047,322.819502 205.928488,319.83799 204.352907,317.276409 C207.094419,317.853814 209.394767,318.021787 212.325349,319.890481 C214.972326,321.580704 217.850388,323.879828 220.72845,324.583213 C221.547752,324.78268 222.566628,324.068797 222.167481,323.533385 C220.329302,321.192268 215.466008,318.284244 211.51655,315.512698 C215.673223,317.365257 219.635188,319.626523 223.343915,322.263093 C224.299767,322.83 225.854341,321.906151 225.570736,321.496718 C223.774574,318.924639 215.781124,314.977285 214.447132,314.021942 C217.818876,314.714828 220.119225,317.244914 221.642287,317.538866 C222.293527,317.664845 223.24938,317.02445 222.955271,316.615017 C221.978411,315.292234 219.394457,313.874966 217.96593,313.024605 C214.573178,311.019433 209.783411,308.919777 204.46845,309.077251 C202.063062,308.184897 199.56314,307.177062 199.56314,307.177062 C199.56314,307.177062 196.580039,311.460361 197.472868,312.079759 Z" id="Path" fill="#FFC2BE"></path>
                <path d="M111.803256,336.918694 L114.544767,339.627251 C115.757313,339.330637 117.005144,339.203448 118.252636,339.249313 C119.674126,339.822504 121.024172,340.558821 122.27562,341.443454 C123.031899,341.968368 125.164186,345.642766 126.172558,347.018041 C126.592713,348.456306 123.599109,348.183351 122.286124,346.356649 C121.246772,344.844248 119.990348,343.492985 118.557248,342.346306 C119.660155,343.396134 121.141202,346.125687 121.708411,346.6611 C119.523605,349.674107 115.090969,351.836753 112.895659,352.529639 C111.551163,349.684605 110.490271,348.498299 110.637326,346.23067 C110.511279,344.131014 108.02186,342.178333 106.803411,341.411959 C107.496667,339.805722 109.765504,337.286134 111.803256,336.918694 Z" id="Path" fill="#FFC2BE"></path>
                <path d="M131.29845,281.70823 L118.504729,284.626753 L131.29845,281.70823 Z" id="Path" fill="#B3CFDF"></path>
            </g>
        </g>
    </g>
</svg>