<?xml version="1.0" encoding="utf-8"?>
<svg id="master-artboard" viewBox="0 0 1400 980" version="1.1" width="512" height="512" xmlns="http://www.w3.org/2000/svg" x="0px" y="0px" style="enable-background:#fff;"><rect id="ee-background" x="0" y="0" width="1400" height="980" style="fill: #fff; fill-opacity: 0; pointer-events: none;"/><g transform="matrix(40.833335876464844, 0, 0, 40.833335876464844, 210.00004205783898, -1.4210854715202004e-14)"><g fill="currentColor" style="color:#fff;">
		              				  <g>
    									<path d="M20.06 20.05c0-4.696-3.58-8.53-8.03-8.53-4.45 0-8.03 3.834-8.03 8.53h2c0-3.62 2.716-6.53 6.03-6.53s6.03 2.91 6.03 6.53h2z"/>
    									<path d="M12.023 13.53C9.263 13.53 7 11.412 7 8.765S9.263 4 12.023 4s5.023 2.118 5.023 4.765-2.263 4.765-5.023 4.765zm0-2c1.684 0 3.023-1.253 3.023-2.765 0-1.512-1.34-2.765-3.023-2.765C10.34 6 9 7.253 9 8.765c0 1.512 1.34 2.765 3.023 2.765z"/>
  									  </g>
		              				</g></g></svg>