<?xml version="1.0"?>
<svg xmlns="http://www.w3.org/2000/svg" xmlns:xlink="http://www.w3.org/1999/xlink" xmlns:svgjs="http://svgjs.com/svgjs" version="1.1" width="512" height="512" x="0" y="0" viewBox="0 0 28.145 28.145" style="enable-background:new 0 0 512 512" xml:space="preserve"><g>
<g xmlns="http://www.w3.org/2000/svg">
	<g>
		<circle cx="9.026" cy="22.371" r="2.086" fill="#ffffff" data-original="#000000" style=""/>
		<circle cx="25.016" cy="22.371" r="2.086" fill="#ffffff" data-original="#000000" style=""/>
		<path d="M28.145,7.746c0-0.033-0.016-0.061-0.018-0.094c-0.008-0.071-0.021-0.137-0.041-0.203    c-0.021-0.064-0.043-0.125-0.072-0.183c-0.031-0.059-0.067-0.109-0.109-0.161c-0.042-0.054-0.086-0.102-0.139-0.146    c-0.049-0.042-0.101-0.074-0.157-0.106c-0.063-0.035-0.125-0.064-0.195-0.087c-0.03-0.01-0.054-0.031-0.085-0.038    c-0.04-0.009-0.076,0.001-0.115-0.002c-0.039-0.003-0.072-0.022-0.111-0.022L6.939,6.701c-0.015,0-0.027,0.008-0.042,0.009    L6.213,4.432C6.081,3.991,5.674,3.688,5.214,3.688H1.043C0.467,3.688,0,4.155,0,4.731c0,0.576,0.467,1.043,1.043,1.043h3.396    l3.949,13.162c0.132,0.441,0.539,0.742,0.999,0.742h15.294c0.49,0,0.912-0.338,1.019-0.816l2.42-10.888    c0.009-0.038-0.002-0.075,0.002-0.113C28.127,7.821,28.145,7.786,28.145,7.746z M23.846,17.592H10.163L7.521,8.786l18.281,0.003    L23.846,17.592z" fill="#ffffff" data-original="#000000" style=""/>
	</g>
</g>
<g xmlns="http://www.w3.org/2000/svg">
</g>
<g xmlns="http://www.w3.org/2000/svg">
</g>
<g xmlns="http://www.w3.org/2000/svg">
</g>
<g xmlns="http://www.w3.org/2000/svg">
</g>
<g xmlns="http://www.w3.org/2000/svg">
</g>
<g xmlns="http://www.w3.org/2000/svg">
</g>
<g xmlns="http://www.w3.org/2000/svg">
</g>
<g xmlns="http://www.w3.org/2000/svg">
</g>
<g xmlns="http://www.w3.org/2000/svg">
</g>
<g xmlns="http://www.w3.org/2000/svg">
</g>
<g xmlns="http://www.w3.org/2000/svg">
</g>
<g xmlns="http://www.w3.org/2000/svg">
</g>
<g xmlns="http://www.w3.org/2000/svg">
</g>
<g xmlns="http://www.w3.org/2000/svg">
</g>
<g xmlns="http://www.w3.org/2000/svg">
</g>
</g></svg>
